<svg id="svg12" xmlns="http://www.w3.org/2000/svg" viewBox="0 0 425.2 300.34"><defs><style>.cls-1{fill:#000200;fill-rule:evenodd;}</style></defs><title>gallery-33 logo_notext</title><g id="Layer1000"><g id="Layer1001"><path id="path2" class="cls-1" d="M286.06,389.83a124.63,124.63,0,0,1,36.56,91.83h0a62.5,62.5,0,1,0,65.84-65.84l50.42-50.42,62.51-62.51H169.86v31.25h31.25v31.26h50.42a124.72,124.72,0,0,1,34.53,24.44ZM291.34,561c-1.69,1.91-3.45,3.8-5.28,5.63A125.06,125.06,0,0,1,84.84,532.08l50.42-50.42a62.5,62.5,0,1,0,65.85-65.85l50.42-50.42H438.89A125,125,0,1,1,296.64,566.61c-1.84-1.84-3.6-3.71-5.3-5.63Z" transform="translate(-84.84 -302.88)"/></g></g></svg>